PathFileType	4	(X/Y/Z)	E:\Marcel_BSc\Ayumi_22_01_2025\22-01-2025\sumo_dl_3.trc
DataRate	CameraRate	NumFrames	NumMarkers	Units	OrigDataRate	OrigDataStartFrame	OrigNumFrames
200.0	200.0	4	47	mm	200.0	877	2336	
Frame#	Time	FHD			LBHD			RBHD			RBAR			LBAR			RSACR			LSACR			USACR			C7			CLAV			T10			RSHO			LSHO			LTHI1			LTHI3			LTHI2			LTIB1			LTIB2			LTIB3			LMMAL			LLMAL			LHEE			LMT1			LMT5			LMT3			RTHI1			RTHI2			RTHI3			RTIB1			RTIB3			RTIB2			RLMAL			RMMAL			RHEE			RMT5			RMT1			RMT3			LDUPA			LMUPA			LUUPA			LRAD			RUL			RUFIN			RRAD			RMUPA			RDUPA			RUUPA			
		X1	Y1	Z1	X2	Y2	Z2	X3	Y3	Z3	X4	Y4	Z4	X5	Y5	Z5	X6	Y6	Z6	X7	Y7	Z7	X8	Y8	Z8	X9	Y9	Z9	X10	Y10	Z10	X11	Y11	Z11	X12	Y12	Z12	X13	Y13	Z13	X14	Y14	Z14	X15	Y15	Z15	X16	Y16	Z16	X17	Y17	Z17	X18	Y18	Z18	X19	Y19	Z19	X20	Y20	Z20	X21	Y21	Z21	X22	Y22	Z22	X23	Y23	Z23	X24	Y24	Z24	X25	Y25	Z25	X26	Y26	Z26	X27	Y27	Z27	X28	Y28	Z28	X29	Y29	Z29	X30	Y30	Z30	X31	Y31	Z31	X32	Y32	Z32	X33	Y33	Z33	X34	Y34	Z34	X35	Y35	Z35	X36	Y36	Z36	X37	Y37	Z37	X38	Y38	Z38	X39	Y39	Z39	X40	Y40	Z40	X41	Y41	Z41	X42	Y42	Z42	X43	Y43	Z43	X44	Y44	Z44	X45	Y45	Z45	X46	Y46	Z46	X47	Y47	Z47	
877	4.375	2.0270731	1107.3179	-1001.1662	13.614943	1093.9038	-938.19043	45.351639	1071.611	-1067.1504	229.48676	235.12971	-2082.9814	214.51364	247.67253	137.28558	545.84857	669.13275	-1029.6095	548.95685	675.15729	-958.2019	539.64838	682.10687	-993.31879	183.16631	959.75519	-976.79871	144.77251	803.1571	-982.12976	427.68164	826.96191	-999.70673	116.09459	816.5141	-1124.6315	140.41484	818.04041	-820.57251	390.92828	494.54742	-663.41681	346.14996	454.64825	-635.47876	334.0903	503.72528	-629.65869	282.3797	240.5517	-521.21838	325.99701	239.30481	-546.67603	305.7359	180.4153	-528.78564	276.94415	71.220665	-587.11847	330.29535	73.978966	-532.44391	343.74966	35.390232	-588.992	182.20003	44.735291	-479.95129				199.9276	41.129738	-451.05426	395.95804	477.71353	-1302.7017	343.7468	489.87491	-1341.1584	351.85495	440.30423	-1333.4166	295.41086	271.89175	-1451.8101	316.8121	212.16676	-1442.9769	336.97824	270.81992	-1422.9117	342.19385	75.712349	-1438.9106	270.03632	69.202644	-1400.6283	352.94171	31.289734	-1381.9547	265.76855	25.969643	-1550.8986	207.97423	35.21949	-1516.7596	229.21764	33.471504	-1539.5591	266.70819	640.43842	-757.80243	217.06944	636.97314	-758.94696	212.30916	698.52356	-760.51965	245.38374	316.46658	-705.04498	181.79771	316.25333	-1255.1364	178.92027	233.63179	-1195.5118	183.28825	309.15628	-1193.2144	171.07408	717.91876	-1201.8319	182.17552	657.7049	-1214.1154	217.04343	728.68054	-1217.0469
878	4.38	3.0926225	1108.0444	-1001.5685	14.575262	1094.6433	-938.55664	46.317665	1071.944	-1067.5774	229.57143	235.12836	-2083.0505	214.46782	247.61868	137.2691	545.96497	669.46619	-1029.8232	549.19604	675.41449	-958.41058	539.60181	682.75085	-993.41901	183.26082	959.82135	-976.93549	145.12411	803.41699	-982.3208	427.7735	827.18988	-999.94751	116.32722	816.66589	-1124.9456	140.66103	818.12079	-820.70612	391.21658	494.7037	-663.59473	346.51184	454.90552	-635.59967	334.42929	503.98117	-629.7998	282.43054	240.51958	-521.20691	325.91895	239.2803	-546.72034	305.82779	180.3598	-528.74622	276.91455	71.239304	-587.10315	330.29141	74.007004	-532.4389	343.70425	35.414021	-589.00562	182.20244	44.723377	-479.91531				199.94304	41.113724	-450.99545	395.73511	477.79681	-1302.6196	343.49774	489.95413	-1341.0341	351.64307	440.39243	-1333.2626	295.25418	271.55927	-1451.9258	316.57336	212.06081	-1442.9304	336.71603	270.80661	-1422.9033	342.12921	75.719551	-1438.9294	269.99512	69.167725	-1400.6041	352.94427	31.256317	-1381.9844	265.76169	26.006763	-1550.9171	207.58823	35.358883	-1516.6484	229.291	33.52644	-1539.5773	267.38907	640.55035	-758.05145	217.73682	637.10303	-759.01959	212.97067	698.63403	-760.57068	245.42027	316.53253	-705.06177	181.86469	316.46689	-1255.066	178.96429	233.72275	-1195.5306	183.38054	309.28207	-1193.176	171.44943	717.99237	-1202.0089	182.64476	657.63617	-1214.281	217.35109	728.86694	-1217.212
879	4.385	4.1317105	1108.6669	-1002.0391	15.490689	1095.356	-939.03937	47.120697	1072.3735	-1067.9315	229.69551	235.09309	-2083.0232	214.43163	247.57108	137.24759	546.00195	669.89819	-1029.9597	549.34857	675.74176	-958.62964	539.82812	682.94275	-993.70221	183.24599	959.93073	-977.16132	145.45193	803.54285	-982.50665	427.80646	827.50116	-1000.1714	116.56668	816.92169	-1125.2263	141.02824	818.01031	-820.91943	391.58951	494.93402	-663.74341	347.09598	455.28207	-635.67401	334.77817	504.21948	-629.89459	282.44748	240.5119	-521.21198	326.04987	239.23141	-546.64294	305.79614	180.36888	-528.7312	276.89767	71.255424	-587.07465	330.28629	73.997025	-532.43311	343.71783	35.415878	-589.00043	182.19447	44.75045	-479.88397				199.76469	41.221073	-451.00336	395.56403	477.83926	-1302.5627	343.13699	490.11111	-1340.9102	351.40088	440.40216	-1333.1041	294.10233	272.56467	-1450.9691	316.24445	212.17036	-1442.9061	336.36658	270.81906	-1422.8413	342.06055	75.718208	-1438.9364	269.94308	69.098007	-1400.5797	352.91589	31.258278	-1381.9941	265.75598	26.031452	-1550.9302	207.92694	35.163292	-1516.8162	229.33281	33.579857	-1539.6028	268.03839	640.63391	-758.30994	218.34221	637.16425	-759.14941	213.55222	698.68616	-760.64886	245.50194	316.63809	-705.08954	181.98587	316.58331	-1255.0663	179.01311	233.81816	-1195.5536	183.50813	309.35324	-1193.2042	171.85509	718.09058	-1202.2148	182.97316	657.84857	-1214.3129	217.82246	728.79639	-1217.3987
880	4.39	5.0471969	1109.4801	-1002.3397	16.38345	1096.0598	-939.49158	47.93795	1072.7227	-1068.3485	229.8172	235.07367	-2083.0505	214.41005	247.47368	137.22318	546.09375	670.1944	-1030.1892	549.45166	676.18976	-958.83295	539.8493	683.43573	-993.85736	182.9422	960.32428	-977.1543	145.77097	803.63232	-982.78986	427.79562	827.97211	-1000.241	116.71526	817.19989	-1125.5156	141.33113	817.91217	-821.28992	391.9837	495.23755	-663.84863	347.47238	455.53693	-635.7616	334.42725	504.50073	-630.10193	282.51385	240.43742	-521.18799	326.14554	239.20734	-546.57208	305.92407	180.3239	-528.67413	276.87027	71.265152	-587.02051	330.30194	74.019608	-532.42249	343.72195	35.41053	-589.00531	182.18718	44.766876	-479.85632				199.72545	41.2537	-451.03787	395.35248	477.79401	-1302.5282	342.76328	490.07477	-1340.7611	351.05939	440.42734	-1332.8955	293.73389	272.54446	-1450.8302	316.09387	212.07573	-1442.7881	336.0636	270.86438	-1422.7081	341.97617	75.741951	-1438.9453	269.93573	69.030533	-1400.5623	352.90433	31.27516	-1381.9907	265.75958	26.013542	-1550.9385	207.92528	35.17178	-1516.8346	229.26387	33.537632	-1539.6569	268.5914	640.71503	-758.57996	218.93092	637.25012	-759.22424	214.18013	698.8291	-760.75146	245.57281	316.72025	-705.09277	182.10066	316.75894	-1255.0391	179.08908	233.90762	-1195.5815	183.59201	309.40466	-1193.2069	172.25499	718.17609	-1202.4536	183.43033	657.85236	-1214.4714	218.25824	728.9126	-1217.5895
